<?xml version="1.0" encoding="utf-8"?>
<!-- Generator: Adobe Illustrator 24.3.0, SVG Export Plug-In . SVG Version: 6.00 Build 0)  -->
<svg version="1.1" id="Layer_1" xmlns="http://www.w3.org/2000/svg" xmlns:xlink="http://www.w3.org/1999/xlink" x="0px" y="0px"
	 viewBox="0 0 742 221.64" style="enable-background:new 0 0 742 221.64;" xml:space="preserve">
<style type="text/css">
	.st0{filter:url(#Adobe_OpacityMaskFilter);}
	.st1{fill:url(#SVGID_2_);}
	.st2{mask:url(#SVGID_1_);fill-rule:evenodd;clip-rule:evenodd;fill:#00B3FF;}
	.st3{fill-rule:evenodd;clip-rule:evenodd;fill:#2266F2;}
	.st4{fill-rule:evenodd;clip-rule:evenodd;fill:#808184;}
	.st5{fill:#414447;}
	.st6{filter:url(#Adobe_OpacityMaskFilter_1_);}
	.st7{fill:url(#SVGID_4_);}
	.st8{mask:url(#SVGID_3_);fill-rule:evenodd;clip-rule:evenodd;fill:#00B3EA;}
</style>
<defs>
	<filter id="Adobe_OpacityMaskFilter" filterUnits="userSpaceOnUse" x="10.13" y="5.61" width="117.12" height="131.95">
		<feColorMatrix  type="matrix" values="1 0 0 0 0  0 1 0 0 0  0 0 1 0 0  0 0 0 1 0"/>
	</filter>
</defs>
<mask maskUnits="userSpaceOnUse" x="10.13" y="5.61" width="117.12" height="131.95" id="SVGID_1_">
	<g class="st0">
		
			<linearGradient id="SVGID_2_" gradientUnits="userSpaceOnUse" x1="0.1547" y1="275.4265" x2="0.1547" y2="389.6465" gradientTransform="matrix(1 0 0 1 68.5349 -280.2311)">
			<stop  offset="0" style="stop-color:#FFFFFF"/>
			<stop  offset="1" style="stop-color:#000000"/>
		</linearGradient>
		<rect x="10.13" y="5.61" class="st1" width="117.12" height="131.95"/>
	</g>
</mask>
<path class="st2" d="M127.24,5.61l0.01,0.02v99.59c-25.4-4.9-58.23-1.21-69.77,2.39c3.82-19.76,14.12-39.49,39.52-80.77
	c-19.28,11.11-49.39,48.69-56.76,79.85c-7.94-9.52-22.46-26.01-27.12-36.12c-0.79,8.47,4.66,25.82,18.72,47.01
	c-11.99,7.37-17.88,14.88-21.66,19.97C10.3,107.3,10.13,5.86,10.13,5.61l0.02-0.01H127.24z"/>
<path class="st3" d="M127.25,5.61l0.01,0.02v99.59c-25.4-4.9-58.23-1.21-69.77,2.39c3.82-19.76,14.12-39.49,39.52-80.77
	c-19.28,11.11-49.39,48.69-56.76,79.85c-7.94-9.52-22.46-26.01-27.12-36.12c-0.79,8.47,4.66,25.82,18.72,47.01
	c-11.99,7.37-17.88,14.88-21.66,19.97c0.11-30.26-0.06-131.7-0.06-131.94l0.02-0.01H127.25z"/>
<path class="st4" d="M41.72,114.6c-13.46-14.66-23.68-31.52-26.17-36.2c3.48,10.2,7.71,20.32,22.47,40.73
	c-13.92,7.49-25.18,19.97-32.63,31.93c9.81-12.56,23.25-19.75,34.52-23.6c-1.13,16.1,0.88,31.77,5.21,45.77
	c3.26,10.48,13.43,33.41,22.55,43.56c-15.28-29.56-20.95-61.41-18.69-85.32c17.54,20.16,42.81,33.19,68.83,38.13
	c-23-7.01-50.36-28.6-67.17-45.78c18.23-4.98,52.41-13.16,123.68-7.42c-68.32-13.06-98.49-9.75-122.86-3.02
	c7.72-35.29,26.09-62.94,39.87-80.23C69.11,51.59,49.94,81.82,41.72,114.6"/>
<path class="st5" d="M163.94,23.1c0.32,0.05,0.88,0.15,1.71,0.34c0.82,0.17,1.49,0.27,2.01,0.27c0.74,0,2.05-0.21,3.9-0.61
	c5.25,11.59,12.44,26.39,21.6,44.38l5.49-10.79c6.3-12.1,11.74-23.31,16.3-33.59c0.15,0.05,0.32,0.09,0.53,0.13
	c0.22,0.05,0.37,0.09,0.46,0.14c3.17,0,5.52-0.09,7.07-0.28c0.95,8.65,2.63,23.32,5.04,43.98c0.36,2.34,0.82,5.58,1.41,9.7
	c0.59,4.13,0.89,6.32,0.91,6.55c0.06,0.38,0.16,1,0.31,1.9c0.19,0.88,0.27,1.55,0.27,2c-0.72-0.04-1.94-0.12-3.69-0.24
	c-1.74-0.12-3.07-0.17-3.97-0.17c-0.81,0-2.06,0.05-3.72,0.17c-1.68,0.12-2.98,0.2-3.93,0.24c-0.24-6.29-0.76-13.28-1.55-20.94
	c-0.79-7.66-1.56-15.08-2.34-22.27c-10.48,21.49-17.4,35.9-20.73,43.21h-3.61l-7.21-14.98c-1.83-3.88-4.29-8.91-7.34-15.09
	c-3.07-6.17-5.04-10.16-5.9-11.96c-0.9,6.55-1.57,12.07-2.04,16.55c-0.33,4-0.61,7.51-0.85,10.5c-0.37,3.64-0.61,6.71-0.73,9.23
	c-0.05,0.62-0.09,1.58-0.13,2.85c-0.05,1.26-0.1,2.22-0.14,2.91c-1.44-0.27-2.93-0.41-4.48-0.41c-1.44,0-2.87,0.14-4.33,0.41
	c0-1.19,0.24-2.34,0.75-3.44c0.35-1.7,0.84-4.44,1.45-8.25c0.59-3.8,0.93-5.81,0.97-6.02c0.96-5.69,1.83-11.8,2.6-18.29L163.94,23.1
	z"/>
<path class="st5" d="M256.5,35.66c-0.06,2.02-0.17,4.94-0.32,8.75c-0.2,3.82-0.29,7-0.29,9.55c0,2.69,0.09,6.06,0.29,10.09
	c0.15,4.04,0.26,7.17,0.32,9.35c0.03,1.56,0.15,3.89,0.34,6.95c0.19,3.09,0.31,5.36,0.36,6.86c-0.8-0.04-2.03-0.12-3.71-0.24
	c-1.66-0.13-2.88-0.18-3.66-0.18c-2.82,0-5.6,0.14-8.33,0.41c0.87-10.04,1.29-21.49,1.29-34.41v-5.03c0-2.01-0.02-4.19-0.08-6.54
	c-0.06-2.33-0.09-4.16-0.09-5.42c-0.2-5.48-0.43-9.71-0.71-12.7c3.68,0.4,6.22,0.61,7.64,0.61c1.41,0,3.95-0.21,7.64-0.61
	C256.82,28.68,256.57,32.87,256.5,35.66"/>
<path class="st5" d="M323.91,76.42l-2.05,8.07c-5.03,2.59-11.23,3.89-18.59,3.89c-3.41,0-7.49-0.43-12.24-1.3
	c-2.87-0.64-6.29-2.18-10.24-4.6c-2.53-1.76-4.79-3.98-6.75-6.65c-3.93-5.25-5.92-11.43-5.92-18.57c0-5.69,0.82-10.69,2.44-15.01
	c1.65-4.3,4.44-8.19,8.37-11.65c6.59-5.64,15.44-8.47,26.5-8.47c7.08,0,13.42,1.49,19.06,4.47c-0.29,1.06-0.62,2.5-1.04,4.36
	c-0.39,1.83-0.76,3.55-1.13,5.15h-1.29c-1.73-2.5-4.02-4.49-6.84-5.99c-2.83-1.49-5.74-2.23-8.75-2.23c-4.91,0-9,1.33-12.28,4.04
	c-3.31,2.7-5.72,6.18-7.27,10.46c-1.54,4.27-2.32,8.82-2.32,13.6c0,7.72,1.81,14.05,5.49,19.02c1.97,2.53,4.5,4.48,7.53,5.85
	c3.01,1.38,6.11,2.06,9.31,2.06c2.84,0,5.83-0.66,8.96-1.96c3.13-1.31,5.76-2.95,7.92-4.94L323.91,76.42z"/>
<path class="st5" d="M353.12,63.03L353.12,63.03c-1.45-2.61-2.36-4.19-2.75-4.75c-0.23-0.39-0.47-0.61-0.73-0.61
	c-0.29,0-0.43,0.22-0.43,0.61c0,1.81,0.06,4.57,0.13,8.26c0.11,3.7,0.16,6.48,0.16,8.3v2.57c0.08,2.51,0.33,5.78,0.72,9.81
	c-0.87-0.04-2.15-0.12-3.82-0.24c-1.69-0.12-2.97-0.17-3.81-0.17c-0.82,0-2.11,0.05-3.84,0.17c-1.74,0.12-3.01,0.2-3.8,0.24
	l0.14-1.72c0.02-0.73,0.06-1.48,0.1-2.29c0.07-0.81,0.09-1.43,0.13-1.89c0.02-0.45,0.11-1.11,0.19-2
	c0.28-4.04,0.43-10.19,0.43-18.46c0-1.86-0.03-4.68-0.06-8.47c-0.06-3.8-0.09-6.65-0.09-8.51c0-4.41-0.17-11.34-0.57-20.77
	l6.48,0.28c1.48,0,3.71-0.04,6.7-0.14c2.97-0.08,5.21-0.14,6.72-0.14c7.49,0.01,12.53,0.66,15.14,1.9c5.5,3.18,8.23,7.73,8.23,13.7
	c0,4.46-1.31,8.13-3.91,11.04c-2.59,2.89-6.16,4.82-10.66,5.8c2.39,4.32,7.91,13.09,16.57,26.34l3.31,5.34
	c-0.92-0.04-2.33-0.12-4.27-0.24c-1.9-0.12-3.33-0.17-4.24-0.17c-2.78,0-5.61,0.14-8.49,0.41l-10.79-19.16L353.12,63.03z
	 M349.51,39.52v7.36c0,2.98-0.05,5.24-0.16,6.8c5.11,0,8.79-1.1,11.11-3.3c2.3-2.21,3.46-5.57,3.46-10.09
	c0-1.83-0.14-3.41-0.43-4.76c-0.4-1.81-1.03-3.23-1.9-4.23c-0.9-1-1.94-1.69-3.15-2.06c-1.22-0.38-2.62-0.6-4.24-0.64
	c-1.63-0.05-3.2-0.09-4.7-0.13V39.52z"/>
<path class="st5" d="M449.34,80.14L449.34,80.14c-6.91,5.87-15.5,8.79-25.81,8.79c-10.77,0-19.27-3.12-25.54-9.34
	c-6.12-5.92-9.21-13.94-9.21-24.05c0-10.33,3.71-18.71,11.11-25.08c7-5.78,15.6-8.66,25.79-8.66c8.62,0,15.87,2.12,21.76,6.37
	c4.9,3.51,8.26,7.56,10.09,12.12c1.92,4.54,2.9,9.48,2.9,14.83c0,4.78-0.97,9.36-2.88,13.75C455.65,73.24,452.91,77.01,449.34,80.14
	 M440.82,72.66c2.7-5.03,4.06-11.49,4.06-19.3c0-4.29-0.72-8.4-2.1-12.42c-1.4-4-3.59-7.29-6.57-9.83
	c-2.98-2.55-6.68-3.83-11.11-3.83c-4.11,0-7.61,1.05-10.52,3.18c-2.91,2.07-5.12,4.66-6.62,7.77c-2.39,4.9-3.58,11.59-3.58,20.04
	c0,4.32,0.67,8.37,2.03,12.17c1.36,3.8,3.52,6.88,6.48,9.28c2.96,2.39,6.64,3.59,11.08,3.59C431.1,83.31,436.73,79.76,440.82,72.66z
	"/>
<path class="st5" d="M482.22,23.38L482.22,23.38c1.02,0,2.64-0.04,4.81-0.14c2.18-0.08,3.83-0.14,4.95-0.14
	c4.53,0.01,7.95,0.1,10.25,0.29c5.47,0.47,9.8,1.34,12.98,2.61c3.63,1.42,6.56,3.48,8.77,6.18c5.1,5.66,7.66,12.77,7.66,21.36
	c0,5.3-0.88,10.02-2.65,14.13c-1.76,4.12-4.65,7.95-8.61,11.5c-3.39,3.03-6.95,5.13-10.72,6.3c-3.77,1.17-8.22,1.75-13.34,1.75
	c-6.74,0-11.79-0.03-15.14-0.13c-0.51-0.09-1.27-0.14-2.33-0.14c-1.8,0-4.53,0.1-8.19,0.28c0.55-10.92,0.84-21.82,0.84-32.7v-9.49
	c0-1.52-0.06-3.78-0.19-6.79c-0.11-3-0.18-5.3-0.24-6.9c-0.06-1.38-0.14-2.77-0.2-4.13c-0.08-1.37-0.16-2.75-0.22-4.11
	C475.83,23.29,479.68,23.38,482.22,23.38 M492.14,81.74c4.6,0,8.39-0.58,11.31-1.73c2.92-1.15,5.53-3.41,7.85-6.75
	c3.46-5.08,5.18-11.73,5.18-19.9c0-3.36-0.5-6.74-1.52-10.15c-1.02-3.4-2.53-6.21-4.53-8.44c-2.22-2.5-4.76-4.19-7.56-5.04
	c-2.82-0.87-6.26-1.28-10.32-1.28c-0.7,0-1.78,0.06-3.23,0.17c-1.45,0.12-2.58,0.2-3.39,0.24c-0.37,10.49-0.56,26.09-0.56,46.82
	v5.92C486.9,81.69,489.17,81.74,492.14,81.74z"/>
<path class="st5" d="M600.26,80.14L600.26,80.14c-6.89,5.87-15.51,8.79-25.84,8.79c-10.74,0-19.26-3.12-25.52-9.34
	c-6.14-5.92-9.22-13.94-9.22-24.05c0-10.33,3.72-18.71,11.13-25.08c6.98-5.78,15.58-8.66,25.8-8.66c8.62,0,15.86,2.12,21.76,6.37
	c4.89,3.51,8.26,7.56,10.09,12.12c1.92,4.54,2.89,9.48,2.89,14.83c0,4.78-0.96,9.36-2.88,13.75
	C606.57,73.24,603.82,77.01,600.26,80.14 M591.74,72.66c2.7-5.03,4.04-11.49,4.04-19.3c0-4.29-0.7-8.4-2.08-12.42
	c-1.41-4-3.6-7.29-6.59-9.83c-2.97-2.55-6.69-3.83-11.12-3.83c-4.09,0-7.61,1.05-10.53,3.18c-2.9,2.07-5.11,4.66-6.61,7.77
	c-2.4,4.9-3.59,11.59-3.59,20.04c0,4.32,0.69,8.37,2.05,12.17c1.36,3.8,3.52,6.88,6.46,9.28c2.98,2.39,6.67,3.59,11.11,3.59
	C582.02,83.31,587.63,79.76,591.74,72.66z"/>
<path class="st5" d="M629.65,87.07c-1.33-0.19-2.57-0.28-3.74-0.28c-1.44,0-2.89,0.14-4.34,0.41c0.67-6.69,1.12-13.67,1.37-20.91
	c0.24-7.24,0.36-15.1,0.36-23.6c0-1.67-0.01-4.18-0.07-7.53c-0.05-3.35-0.08-5.89-0.08-7.61c0-1.93-0.04-3.41-0.13-4.47
	c2.03,0.4,3.44,0.6,4.19,0.6c0.85,0,2.27-0.2,4.31-0.6c3.71,4.09,7.2,7.86,10.44,11.34c3.23,3.47,6.84,7.34,10.81,11.6
	c3.99,4.28,7.37,7.95,10.19,10.99c2.82,3.06,5.89,6.51,9.22,10.32V36.23c0-1.56-0.1-3.51-0.27-5.88c-0.19-2.37-0.27-4.14-0.33-5.34
	l-0.14-1.91c2.04,0.4,3.42,0.6,4.19,0.6c0.63,0,1.39-0.06,2.23-0.19c0.85-0.13,1.55-0.21,2.08-0.27c-0.17,2.35-0.27,4.09-0.27,5.22
	c-0.38,4.55-0.62,8.49-0.74,11.83c-0.05,1.98-0.09,3.57-0.13,4.78c-0.08,1.23-0.15,2.71-0.22,4.43c-0.07,1.73-0.12,3.34-0.15,4.81
	c-0.05,1.48-0.07,2.71-0.07,3.69v29.22c-0.18-0.09-0.53-0.13-1.02-0.13c-0.58-0.09-1.46-0.14-2.6-0.14c-1.72,0-3.05,0.1-4,0.28
	c-11.43-13.4-21.67-24.87-30.72-34.41l-10.12-10.66c-0.18,5.76-0.27,9.94-0.27,12.53v8.63c0,10.68,0.17,18.64,0.59,23.91
	L629.65,87.07z"/>
<path class="st5" d="M720.16,36.94c0,2.61-0.04,6.52-0.13,11.71c-0.09,5.18-0.13,9.06-0.13,11.64c0,1.29,0.01,3.27,0.05,5.9
	c0.06,2.66,0.08,4.68,0.08,6.05c0,1.62,0.08,4.13,0.21,7.5c0.13,3.38,0.19,5.88,0.19,7.49c-0.7-0.04-1.92-0.12-3.67-0.24
	c-1.75-0.13-3.06-0.18-3.95-0.18c-0.83,0-2.09,0.05-3.79,0.18c-1.66,0.11-2.97,0.19-3.85,0.24c0.05-1.5,0.16-3.72,0.32-6.68
	c0.15-2.94,0.23-5.14,0.23-6.57c0.41-13.42,0.62-24.02,0.62-31.82c0-2.77-0.09-6.75-0.3-11.96c-1.83,0-4.57,0.09-8.23,0.29
	c-3.51,0.31-6.54,0.65-9.08,1c0.28-0.86,0.42-2.17,0.42-3.9c0-1.53-0.04-2.62-0.13-3.3c-0.04-0.09-0.09-0.3-0.13-0.58
	c-0.04-0.29-0.1-0.49-0.15-0.58c3.1,0.19,5.47,0.28,7.08,0.28c6.75,0.21,12.41,0.32,17,0.32h9.66c1.64,0,3.95-0.09,7.02-0.31
	c3.04-0.2,5.56-0.29,7.52-0.29c-0.27,1.29-0.43,2.55-0.43,3.77c0,1.47,0.14,3.01,0.43,4.6c-5.57-0.86-11.08-1.3-16.59-1.3
	L720.16,36.94z"/>
<defs>
	<filter id="Adobe_OpacityMaskFilter_1_" filterUnits="userSpaceOnUse" x="10.13" y="5.61" width="117.12" height="131.95">
		<feColorMatrix  type="matrix" values="1 0 0 0 0  0 1 0 0 0  0 0 1 0 0  0 0 0 1 0"/>
	</filter>
</defs>
<mask maskUnits="userSpaceOnUse" x="10.13" y="5.61" width="117.12" height="131.95" id="SVGID_3_">
	<g class="st6">
		
			<linearGradient id="SVGID_4_" gradientUnits="userSpaceOnUse" x1="0.1547" y1="275.4265" x2="0.1547" y2="389.6465" gradientTransform="matrix(1 0 0 1 68.5349 -280.2311)">
			<stop  offset="0" style="stop-color:#FFFFFF"/>
			<stop  offset="1" style="stop-color:#000000"/>
		</linearGradient>
		<rect x="10.13" y="5.61" class="st7" width="117.12" height="131.95"/>
	</g>
</mask>
<path class="st8" d="M127.24,5.61l0.01,0.02v99.59c-25.4-4.9-58.23-1.21-69.77,2.39c3.82-19.76,14.12-39.49,39.52-80.77
	c-19.28,11.11-49.39,48.69-56.76,79.85c-7.94-9.52-22.46-26.01-27.12-36.12c-0.79,8.47,4.66,25.82,18.72,47.01
	c-11.99,7.37-17.88,14.88-21.66,19.97C10.3,107.3,10.13,5.86,10.13,5.61l0.02-0.01H127.24z"/>
</svg>
